<svg viewBox="0 0 48 39" xmlns="http://www.w3.org/2000/svg"><path d="M43.087 9.715c.621 13.851-9.707 29.294-27.992 29.294A27.874 27.874 0 010 34.584a19.8 19.8 0 0014.579-4.078 9.856 9.856 0 01-9.198-6.839 9.877 9.877 0 004.446-.167c-4.737-.953-8.005-5.219-7.899-9.781a9.798 9.798 0 004.462 1.23C2.004 12.02.762 6.23 3.342 1.802c4.856 5.959 12.112 9.879 20.297 10.29C22.204 5.933 26.877 0 33.232 0a9.828 9.828 0 017.188 3.109 19.695 19.695 0 006.253-2.39 9.866 9.866 0 01-4.33 5.448A19.668 19.668 0 0048 4.617a19.993 19.993 0 01-4.913 5.098" fill="#4DC8F1" fill-rule="evenodd"/></svg>